<?xml version="1.0" encoding="UTF-8" standalone="no"?>
<!-- Created with Inkscape (http://www.inkscape.org/) -->

<svg
   version="1.1"
   id="svg1"
   width="500"
   height="500"
   viewBox="0 0 500 500"
   xmlns:xlink="http://www.w3.org/1999/xlink"
   xmlns="http://www.w3.org/2000/svg"
   xmlns:svg="http://www.w3.org/2000/svg">
  <defs
     id="defs1">
    <filter
       style="color-interpolation-filters:sRGB"
       id="filter127-2"
       x="0"
       y="0"
       width="1"
       height="1">
      <feBlend
         in2="BackgroundImage"
         mode="multiply"
         result="fbSourceGraphic"
         id="feBlend127-6" />
      <feColorMatrix
         result="fbSourceGraphicAlpha"
         in="fbSourceGraphic"
         values="0 0 0 -1 0 0 0 0 -1 0 0 0 0 -1 0 0 0 0 1 0"
         id="feColorMatrix127-0" />
      <feBlend
         id="feBlend128-1"
         in2="BackgroundImage"
         mode="multiply"
         result="fbSourceGraphic"
         in="fbSourceGraphic" />
      <feColorMatrix
         result="fbSourceGraphicAlpha"
         in="fbSourceGraphic"
         values="0 0 0 -1 0 0 0 0 -1 0 0 0 0 -1 0 0 0 0 1 0"
         id="feColorMatrix128-6" />
      <feBlend
         id="feBlend129-5"
         in2="BackgroundImage"
         mode="multiply"
         result="blend"
         in="fbSourceGraphic" />
    </filter>
    <clipPath
       clipPathUnits="userSpaceOnUse"
       id="clipPath146">
      <use
         x="0"
         y="0"
         xlink:href="#g145"
         id="use146"
         transform="translate(0,-1)" />
    </clipPath>
    <clipPath
       clipPathUnits="userSpaceOnUse"
       id="clipPath4">
      <use
         x="0"
         y="0"
         xlink:href="#g3"
         id="use4" />
    </clipPath>
  </defs>
  <g
     id="g1"
     transform="translate(-683.13622,-197.27417)">
    <g
       id="g146"
       clip-path="url(#clipPath146)"
       transform="translate(2.4748737,0.35355339)">
      <g
         id="g145"
         style="opacity:1"
         transform="translate(0,1)">
        <g
           id="g4"
           clip-path="url(#clipPath4)">
          <g
             id="g3">
            <g
               id="g2">
              <path
                 id="path97"
                 style="fill:#0ebbe4"
                 d="m 1030.2031,446.56836 -2.8027,0.98047 -2.8027,0.98047 -0.336,2.93164 -0.3359,2.93359 1.7754,1.29883 1.7773,1.29883 h 1.6192 1.6171 l 1.7774,-1.29883 1.7754,-1.29883 -0.336,-2.85156 -0.3339,-2.84961 -1.6973,-1.0625 z m -109.9863,1.72461 c -0.0371,0.035 -0.0783,0.0749 -0.11914,0.11719 v 0.082 0.0137 c 0.0408,-0.0708 0.0811,-0.14108 0.11914,-0.21289 z m 58.88086,0.45117 v 0.24805 h 0.24218 c -0.01,-0.0182 -0.0185,-0.0365 -0.0254,-0.0547 -0.0529,-0.0344 -0.10112,-0.0818 -0.15429,-0.11523 -0.024,-0.0236 -0.0417,-0.0526 -0.0625,-0.0781 z m 105.00004,0.24805 v 24.5 24.5 h 4 4 v -4.30274 -4.30468 l 3.3164,-3.21485 3.3183,-3.2168 5.9317,7.4668 5.9336,7.4668 5.25,0.0527 5.2519,0.0527 -8.0488,-10.17969 -8.0469,-10.17969 7.2715,-7.32031 7.2715,-7.32031 h -5.2364 -5.2363 l -7.8496,7.5 -7.8496,7.5 h -0.6387 -0.6386 v -14.5 -14.5 h -4 z m -319.07817,1 -4.21094,3.92773 -4.21093,3.92969 v 18.32031 18.32227 l 1.69336,2.39453 1.69531,2.39258 2.80469,1.84961 2.80664,1.84961 3.79882,0.008 3.79883,0.006 2.83008,-1.46289 2.82813,-1.46289 0.62109,-1.61914 0.62305,-1.61719 v -7.63477 -7.63476 l -5.28321,5.21679 -5.28125,5.21485 h -1.21875 -1.21679 v -15.53125 -15.53125 l 1.52734,-0.58594 1.52734,-0.58594 7.72266,6.92578 7.72266,6.92383 2.4707,1.69336 2.47266,1.69141 h 4.72656 4.72461 l 5.80273,-4.88086 5.80274,-4.87891 3.44531,-3.62109 3.44531,-3.61914 h 1.6875 1.6875 l 0.60352,2.25 0.60351,2.25 0.0137,13.75 0.0137,13.75 h -1.79297 -1.79102 l -4.41601,-4.5 -4.41797,-4.5 h -0.83399 -0.83398 l 0.29297,7.71484 0.29297,7.71485 3.39648,2.28515 3.39844,2.28516 3.60156,-0.004 3.60352,-0.004 3.20117,-1.95118 3.20117,-1.95312 1.54883,-2.99414 1.54883,-2.99414 v -16.59961 -16.59961 l -1.48047,-2.86133 -1.48047,-2.86328 -2.6543,-2.08789 -2.65625,-2.08789 h -3.92969 -3.93164 l -2.18359,1.13281 -2.18359,1.13477 -7.56446,6.77929 -7.56445,6.78125 -1.43555,0.20313 -1.43554,0.20508 -1.27735,-0.11719 -1.27734,-0.11914 -7.05469,-6.75 -7.05469,-6.75 -2.16797,-1.21485 -2.16796,-1.21484 -4.28907,-0.0352 z m 206.05664,0 c -0.002,0.003 -0.004,0.007 -0.006,0.01 -0.0152,0.0188 -0.0297,0.0378 -0.0449,0.0566 0.0239,0.0111 0.0475,0.0227 0.0723,0.0352 v -0.10156 z m 0.0215,0.95703 c -0.0326,0.0145 -0.0655,0.0289 -0.0996,0.043 h 0.0996 z m 18,1.04297 v 23 23 h 16.50003 16.5 v -3.46875 -3.46875 l -12.25,-0.28125 -12.25003,-0.28125 -0.27344,-19.25 -0.27149,-19.25 h -3.97851 z m -15.07032,4 c 0.0231,0.0147 0.047,0.0306 0.0703,0.0449 v -0.0449 z m 87.89645,5.63086 -4.6504,1.24414 -4.6504,1.24414 -1.7636,1.5957 -1.7617,1.5957 v -2.15625 -2.15429 h -4 -4 v 17.5 17.5 h 4.5 4.5 v -11.54492 -11.54493 l 2.4531,-2.45507 2.4551,-2.45508 h 4.3906 4.3906 l 1.9043,2.10156 1.9063,2.10156 0.332,11.89844 0.334,11.89844 h 3.9922 3.9921 l -0.3261,-13.9375 -0.3242,-13.9375 -2.959,-3.08399 -2.959,-3.08593 -3.8789,-1.16211 z m -109.50191,1.36328 c -0.008,0.003 -0.0156,0.007 -0.0234,0.01 h 0.0312 l -0.006,-0.01 z m 72.67581,0.01 v 17.5 17.5 h 4 4 v -17.5 -17.5 h -4 z m -70.00003,0.94727 v 0.0527 H 955.25 c -0.0509,-0.0165 -0.10226,-0.0336 -0.15234,-0.0527 z m -17,2.30469 c -0.0128,0.0179 -0.027,0.0367 -0.041,0.0547 h 0.002 0.002 c 0.0125,-0.0145 0.0264,-0.0322 0.0371,-0.0508 z m -50.08399,0.52343 v 0.002 l -0.002,0.002 -0.002,0.002 v 0.002 l 0.004,0.002 h 0.002 v -0.002 -0.002 -0.002 -0.002 -0.002 z m 67.45313,10.72461 v 0.0996 c 0.003,-1e-5 0.005,10e-6 0.008,0 z m -42.44336,0.6543 c -0.002,0.15239 -0.005,0.30054 -0.006,0.45313 0.0193,-0.005 0.0391,-0.008 0.0586,-0.0117 -0.0172,-0.1483 -0.0352,-0.29328 -0.0527,-0.44141 z m -45.15625,0.70117 c 0.0195,0.044 0.0388,0.0853 0.0605,0.1211 l 0.002,0.002 0.002,0.002 0.002,0.002 h 0.002 v -0.002 -0.002 c 0.002,-0.0154 -0.01,-0.0741 -0.0293,-0.0996 -9.7e-4,-10e-4 -0.005,-0.005 -0.006,-0.006 h -0.002 l -0.002,-0.002 h -0.002 v -0.002 c -0.009,-0.004 -0.0182,-0.01 -0.0273,-0.0137 z m 44.6582,19.20703 c -0.006,2.7e-4 -0.012,0.002 -0.0176,0.002 v 0.43554 z" />
            </g>
          </g>
        </g>
      </g>
    </g>
    <g
       id="g144">
      <g
         id="g5">
        <path
           d="m 849.37868,475.62132 v -23 h 3.43843 3.43843 l 8.20215,13.75 8.20215,13.75 1.13881,1.24368 1.13882,1.24367 8.81261,-14.99367 8.81262,-14.99368 h 3.40799 3.40799 v 23 23 h -4 -4 l -0.009,-15.25 -0.009,-15.25 -7.61131,12.75 -7.61132,12.75 h -1.75851 -1.75851 l -7.61132,-12.75 -7.61131,-12.75 -0.009,15.25 -0.009,15.25 h -4 -4 z m 60,5.5 v -17.5 h 4 4 v 17.5 17.5 h -4 -4 z m 16,0 v -17.5 h 4 4 v 2.02993 2.02994 l 2.93886,-2.17279 2.93886,-2.1728 h 5.33455 5.33454 l 3.20967,1.65979 3.20967,1.65978 1.70878,3.23307 1.70878,3.23308 0.42639,12.75 0.42639,12.75 h -4.11825 -4.11824 l -0.006,-9.25 -0.006,-9.25 -1.01155,-3.64177 -1.01154,-3.64176 -1.49965,-1.2446 -1.49965,-1.2446 h -4.07414 -4.07414 l -2.65909,2.65645 -2.65909,2.65644 -0.33605,11.47992 -0.33606,11.47992 h -3.91394 -3.91395 z m 43,0 v -17.5 h 4 4 v 17.5 17.5 h -4 -4 z m -59,-25.5 -2,-2 v -0.7775 -0.77749 l 1.5567,-2.22251 1.55671,-2.2225 h 2.28831 2.2883 l 1.65499,1.82874 1.65499,1.82874 v 1.17126 1.17126 l -2,2 -2,2 h -1.5 -1.5 z m 59,0 -2,-2 v -0.7775 -0.77749 l 1.5567,-2.22251 1.55671,-2.2225 h 2.28831 2.2883 l 1.65499,1.82874 1.65499,1.82874 v 1.17126 1.17126 l -2,2 -2,2 h -1.5 -1.5 z"
           style="fill:#182a4b;filter:url(#filter127-2)"
           id="path1" />
      </g>
    </g>
  </g>
</svg>
